<svg width="204" height="204" viewBox="0 0 204 204" fill="none" xmlns="http://www.w3.org/2000/svg">
<path fill-rule="evenodd" clip-rule="evenodd" d="M204 102C204 158.333 158.333 204 102 204C45.667 204 0 158.333 0 102C0 45.667 45.667 0 102 0C158.333 0 204 45.667 204 102ZM31 141.812V58H73.3848C81.1998 58 87.2679 58.657 91.4052 60.0648C95.4506 61.3788 99.0363 64.1006 101.427 67.7609C103.857 71.4391 105.141 75.663 105.28 80.0774C105.674 76.5984 106.892 73.2134 108.835 70.3211C111.606 66.2768 115.393 63.0789 119.919 61.2919C124.814 59.1287 131.649 58 140.239 58C150.768 58 158.804 59.9751 164.346 64.0195C169.888 68.0638 173.121 74.3654 174.137 83.1124L150.122 84.5232C149.475 80.7611 148.182 78.0335 146.058 76.2465C144.026 74.4595 141.163 73.613 137.56 73.707C134.605 73.707 132.388 74.3654 130.91 75.6822C129.432 76.8108 128.601 78.5038 128.693 80.3848C128.693 81.7957 129.432 83.1124 130.541 83.9589C131.741 85.0876 134.605 86.1222 139.131 87.0627C150.307 89.5081 158.25 91.9535 163.145 94.493C168.041 97.0324 171.55 100.136 173.675 103.804C175.892 107.566 177 111.893 177 116.219C177 121.486 175.43 126.659 172.566 131.08C169.518 135.689 165.27 139.263 160.282 141.426C155.017 143.777 148.367 145 140.424 145C126.384 145 116.686 142.272 111.236 136.723C105.787 131.08 102.739 124.12 102 115.655L126.292 114.056C126.846 118.101 127.862 121.11 129.525 123.274C132.111 126.659 135.898 128.446 140.793 128.446C144.395 128.446 147.259 127.6 149.198 125.813C151.046 124.308 152.154 122.145 152.154 119.794C152.154 117.536 151.138 115.373 149.383 113.962C147.536 112.269 143.195 110.576 136.267 109.071C125.091 106.532 117.055 103.146 112.345 98.8195C108.135 95.2051 105.548 90.0883 105.178 84.5433C104.447 91.6025 100.513 98.0461 94.3473 101.642C91.5891 103.238 88.5551 104.364 85.4291 104.927C87.7276 105.584 90.0261 106.711 92.0488 108.025C93.6118 109.339 94.899 110.84 96.0942 112.436C97.4733 114.031 98.6686 115.815 99.6799 117.692L112 142H83.1305L69.5233 116.19C67.7764 112.905 66.3053 110.746 64.9262 109.714C63.0874 108.4 60.8808 107.743 58.6742 107.743H56.4677V141.812H31ZM56.4677 91.9754H67.2247C69.5233 91.7877 71.7299 91.4123 73.9364 90.8492C75.5914 90.5676 77.0624 89.6291 78.0738 88.2212C80.5562 84.8425 80.1884 80.0559 77.1544 77.1464C75.4994 75.7385 72.2815 74.9877 67.6844 74.9877H56.4677V91.9754Z" fill="white"/>
</svg>
